# xmcd
#
# Track frame offsets: 
#        155
#        13070
#        23232
#        37235
#        56652
#        68995
#        87060
#        101347
#        118667
#        134705
#
# Disc length: 2020 seconds
#
# Revision: 3
# Processed by: cddbd v1.5.2PL0 Copyright (c) Steve Scherf et al.
# Submitted via: ExactAudioCopy v1.3
#
DISCID=8a07e20a
DTITLE=Lyle Lovett - Lyle Lovett
DYEAR=1986
DGENRE=Country
TTITLE0=Cowboy Hat
TTITLE1=God Will
TTITLE2=Farther Down the Line
TTITLE3=This Old Porch
TTITLE4=Why I Don't Know
TTITLE5=If I Were the Man You Wanted
TTITLE6=You Can't Resist It
TTITLE7=The Waltzing Fool
TTITLE8=An Acceptable Level of Ecstasy
TTITLE9=Closing Time
EXTD=
EXTT0=
EXTT1=
EXTT2=
EXTT3=
EXTT4=
EXTT5=
EXTT6=
EXTT7=
EXTT8=
EXTT9=
PLAYORDER=
